<?xml version='1.0' encoding='UTF-8'?>
<svg width="232mm" height="232mm" version="1.1" viewBox="0 0 232 232" fill_color="red" back_color="#23dda0" xmlns="http://www.w3.org/2000/svg"><path d="M32,32H40V40H32zM40,32H48V40H40zM48,32H56V40H48zM56,32H64V40H56zM64,32H72V40H64zM72,32H80V40H72zM80,32H88V40H80zM96,32H104V40H96zM104,32H112V40H104zM128,32H136V40H128zM144,32H152V40H144zM152,32H160V40H152zM160,32H168V40H160zM168,32H176V40H168zM176,32H184V40H176zM184,32H192V40H184zM192,32H200V40H192zM32,40H40V48H32zM80,40H88V48H80zM104,40H112V48H104zM128,40H136V48H128zM144,40H152V48H144zM192,40H200V48H192zM32,48H40V56H32zM48,48H56V56H48zM56,48H64V56H56zM64,48H72V56H64zM80,48H88V56H80zM96,48H104V56H96zM112,48H120V56H112zM128,48H136V56H128zM144,48H152V56H144zM160,48H168V56H160zM168,48H176V56H168zM176,48H184V56H176zM192,48H200V56H192zM32,56H40V64H32zM48,56H56V64H48zM56,56H64V64H56zM64,56H72V64H64zM80,56H88V64H80zM96,56H104V64H96zM120,56H128V64H120zM144,56H152V64H144zM160,56H168V64H160zM168,56H176V64H168zM176,56H184V64H176zM192,56H200V64H192zM32,64H40V72H32zM48,64H56V72H48zM56,64H64V72H56zM64,64H72V72H64zM80,64H88V72H80zM96,64H104V72H96zM104,64H112V72H104zM112,64H120V72H112zM144,64H152V72H144zM160,64H168V72H160zM168,64H176V72H168zM176,64H184V72H176zM192,64H200V72H192zM32,72H40V80H32zM80,72H88V80H80zM144,72H152V80H144zM192,72H200V80H192zM32,80H40V88H32zM40,80H48V88H40zM48,80H56V88H48zM56,80H64V88H56zM64,80H72V88H64zM72,80H80V88H72zM80,80H88V88H80zM96,80H104V88H96zM112,80H120V88H112zM128,80H136V88H128zM144,80H152V88H144zM152,80H160V88H152zM160,80H168V88H160zM168,80H176V88H168zM176,80H184V88H176zM184,80H192V88H184zM192,80H200V88H192zM104,88H112V96H104zM112,88H120V96H112zM32,96H40V104H32zM40,96H48V104H40zM48,96H56V104H48zM56,96H64V104H56zM80,96H88V104H80zM96,96H104V104H96zM112,96H120V104H112zM136,96H144V104H136zM160,96H168V104H160zM168,96H176V104H168zM176,96H184V104H176zM192,96H200V104H192zM32,104H40V112H32zM40,104H48V112H40zM48,104H56V112H48zM56,104H64V112H56zM64,104H72V112H64zM88,104H96V112H88zM104,104H112V112H104zM128,104H136V112H128zM136,104H144V112H136zM144,104H152V112H144zM152,104H160V112H152zM160,104H168V112H160zM168,104H176V112H168zM176,104H184V112H176zM192,104H200V112H192zM48,112H56V120H48zM72,112H80V120H72zM80,112H88V120H80zM104,112H112V120H104zM128,112H136V120H128zM136,112H144V120H136zM152,112H160V120H152zM184,112H192V120H184zM192,112H200V120H192zM32,120H40V128H32zM40,120H48V128H40zM56,120H64V128H56zM88,120H96V128H88zM96,120H104V128H96zM104,120H112V128H104zM128,120H136V128H128zM152,120H160V128H152zM168,120H176V128H168zM184,120H192V128H184zM32,128H40V136H32zM40,128H48V136H40zM56,128H64V136H56zM64,128H72V136H64zM72,128H80V136H72zM80,128H88V136H80zM88,128H96V136H88zM104,128H112V136H104zM112,128H120V136H112zM120,128H128V136H120zM136,128H144V136H136zM144,128H152V136H144zM192,128H200V136H192zM96,136H104V144H96zM104,136H112V144H104zM112,136H120V144H112zM120,136H128V144H120zM144,136H152V144H144zM152,136H160V144H152zM176,136H184V144H176zM192,136H200V144H192zM32,144H40V152H32zM40,144H48V152H40zM48,144H56V152H48zM56,144H64V152H56zM64,144H72V152H64zM72,144H80V152H72zM80,144H88V152H80zM112,144H120V152H112zM136,144H144V152H136zM144,144H152V152H144zM152,144H160V152H152zM160,144H168V152H160zM32,152H40V160H32zM80,152H88V160H80zM104,152H112V160H104zM112,152H120V160H112zM120,152H128V160H120zM128,152H136V160H128zM136,152H144V160H136zM152,152H160V160H152zM168,152H176V160H168zM176,152H184V160H176zM32,160H40V168H32zM48,160H56V168H48zM56,160H64V168H56zM64,160H72V168H64zM80,160H88V168H80zM104,160H112V168H104zM120,160H128V168H120zM168,160H176V168H168zM176,160H184V168H176zM184,160H192V168H184zM32,168H40V176H32zM48,168H56V176H48zM56,168H64V176H56zM64,168H72V176H64zM80,168H88V176H80zM96,168H104V176H96zM112,168H120V176H112zM128,168H136V176H128zM144,168H152V176H144zM168,168H176V176H168zM176,168H184V176H176zM184,168H192V176H184zM32,176H40V184H32zM48,176H56V184H48zM56,176H64V184H56zM64,176H72V184H64zM80,176H88V184H80zM96,176H104V184H96zM104,176H112V184H104zM112,176H120V184H112zM128,176H136V184H128zM152,176H160V184H152zM176,176H184V184H176zM32,184H40V192H32zM80,184H88V192H80zM96,184H104V192H96zM120,184H128V192H120zM136,184H144V192H136zM144,184H152V192H144zM152,184H160V192H152zM160,184H168V192H160zM192,184H200V192H192zM32,192H40V200H32zM40,192H48V200H40zM48,192H56V200H48zM56,192H64V200H56zM64,192H72V200H64zM72,192H80V200H72zM80,192H88V200H80zM96,192H104V200H96zM120,192H128V200H120zM136,192H144V200H136zM144,192H152V200H144zM152,192H160V200H152zM176,192H184V200H176z" id="qr-path" fill="#000000" fill-opacity="1" fill-rule="nonzero" stroke="none" /></svg>